<svg width="186" height="31" viewBox="0 0 186 31" fill="none" xmlns="http://www.w3.org/2000/svg">
<path d="M8.89998 1.76445C5.09998 3.76445 2.39998 6.46445 3.19998 7.36445C3.49998 7.66445 5.39998 6.76445 7.49998 5.36445C14.2 0.764452 21.2 1.06445 27.5 5.96445C30.4 8.16445 32 7.76445 30 5.26445C25.7 0.0644517 15.3 -1.63555 8.89998 1.76445Z" fill="#525C65"/>
<path d="M0 8.66448C0 9.26448 0.4 9.76448 0.9 9.76448C1.4 9.76448 2.3 11.1645 2.9 12.7645C4.6 17.6645 9.9 18.6645 14.2 14.9645C17.2 12.3645 16.2 11.1645 10.3 9.86448C7.1 9.16448 3.5 8.36448 2.3 8.06448C1 7.76448 0 8.06448 0 8.66448ZM6.4 12.3645C6.8 13.5645 7.9 13.8645 10.1 13.5645C12.7 13.1645 12.9 13.2645 11.7 14.5645C9.9 16.3645 6.4 15.3645 5 12.6645C4.4 11.5645 4.3 10.7645 4.9 10.7645C5.4 10.7645 6.1 11.4645 6.4 12.3645Z" fill="#525C65"/>
<path d="M24.8 9.46448C17.8 11.0645 16.7 12.3645 19.8 14.9645C24.1 18.6645 29.4 17.6645 31.1 12.7645C31.7 11.1645 32.6 9.76448 33.1 9.76448C33.6 9.76448 34 9.26448 34 8.76448C34 7.56448 33.1 7.56448 24.8 9.46448ZM29 12.6645C27.6 15.3645 24.1 16.3645 22.3 14.5645C21.1 13.2645 21.3 13.1645 23.9 13.5645C26.1 13.8645 27.2 13.5645 27.6 12.3645C27.9 11.4645 28.6 10.7645 29.1 10.7645C29.7 10.7645 29.6 11.5645 29 12.6645Z" fill="#525C65"/>
<path d="M2 17.5645C2 19.2645 6 21.9645 7.5 21.3645C8.4 21.0645 10.1 21.4645 11.2 22.2645C12.7 23.2645 13.8 23.3645 15.2 22.6645C16.4 22.0645 17.6 22.0645 18.9 22.6645C20.2 23.3645 21.3 23.2645 22.6 22.2645C23.7 21.4645 25.4 21.0645 26.5 21.3645C27.8 21.6645 29.3 21.0645 30.5 19.8645C32.6 17.4645 31.8 15.8645 29.5 17.7645C26.3 20.3645 7.4 20.5645 4.8 17.9645C3.4 16.5645 2 16.3645 2 17.5645Z" fill="#525C65"/>
<path d="M3 23.5645C3 26.3645 11.6 30.7645 17 30.7645C21.3 30.7645 27.7 28.0645 30 25.2645C32.2 22.5645 30.4 22.5645 26.5 25.1645C21.3 28.7645 16.8 29.3645 11.5 27.3645C9.1 26.3645 6.6 24.9645 6 24.1645C4.6 22.6645 3 22.2645 3 23.5645Z" fill="#525C65"/>
<path d="M47.1035 9.37695L47.2002 10.6768C48.0238 9.66699 49.1374 9.16211 50.541 9.16211C52.0378 9.16211 53.0654 9.75293 53.624 10.9346C54.4404 9.75293 55.6042 9.16211 57.1152 9.16211C58.3757 9.16211 59.3138 9.53092 59.9297 10.2686C60.5456 10.999 60.8535 12.1019 60.8535 13.5771V21H57.7383V13.5879C57.7383 12.929 57.6094 12.4492 57.3516 12.1484C57.0938 11.8405 56.639 11.6865 55.9873 11.6865C55.0563 11.6865 54.4118 12.1305 54.0537 13.0186L54.0645 21H50.96V13.5986C50.96 12.9255 50.8275 12.4385 50.5625 12.1377C50.2975 11.8369 49.8464 11.6865 49.209 11.6865C48.3281 11.6865 47.6908 12.0518 47.2969 12.7822V21H44.1924V9.37695H47.1035ZM62.7656 15.0811C62.7656 13.9281 62.9876 12.9004 63.4316 11.998C63.8757 11.0957 64.513 10.3975 65.3438 9.90332C66.1816 9.40918 67.152 9.16211 68.2549 9.16211C69.8232 9.16211 71.1016 9.64193 72.0898 10.6016C73.0853 11.5612 73.6403 12.8646 73.7549 14.5117L73.7764 15.3066C73.7764 17.0898 73.2786 18.5221 72.2832 19.6035C71.2878 20.6777 69.9521 21.2148 68.2764 21.2148C66.6006 21.2148 65.2614 20.6777 64.2588 19.6035C63.2633 18.5293 62.7656 17.0684 62.7656 15.2207V15.0811ZM65.8701 15.3066C65.8701 16.4095 66.0778 17.2546 66.4932 17.8418C66.9085 18.4219 67.5029 18.7119 68.2764 18.7119C69.0283 18.7119 69.6156 18.4255 70.0381 17.8525C70.4606 17.2725 70.6719 16.3486 70.6719 15.0811C70.6719 13.9997 70.4606 13.1618 70.0381 12.5674C69.6156 11.973 69.0212 11.6758 68.2549 11.6758C67.4958 11.6758 66.9085 11.973 66.4932 12.5674C66.0778 13.1546 65.8701 14.0677 65.8701 15.3066ZM78.5459 9.37695L78.6426 10.7197C79.4733 9.68132 80.5869 9.16211 81.9834 9.16211C83.2152 9.16211 84.1318 9.52376 84.7334 10.2471C85.335 10.9704 85.6429 12.0518 85.6572 13.4912V21H82.5527V13.5664C82.5527 12.9076 82.4095 12.4313 82.123 12.1377C81.8366 11.8369 81.3604 11.6865 80.6943 11.6865C79.8206 11.6865 79.1654 12.0589 78.7285 12.8037V21H75.624V9.37695H78.5459ZM94.3154 17.7881C94.3154 17.4085 94.1257 17.1113 93.7461 16.8965C93.3737 16.6745 92.7721 16.4775 91.9414 16.3057C89.1771 15.7256 87.7949 14.5511 87.7949 12.7822C87.7949 11.751 88.221 10.8916 89.0732 10.2041C89.9326 9.50944 91.0534 9.16211 92.4355 9.16211C93.9108 9.16211 95.0889 9.50944 95.9697 10.2041C96.8577 10.8988 97.3018 11.8011 97.3018 12.9111H94.1973C94.1973 12.4671 94.054 12.1019 93.7676 11.8154C93.4811 11.5218 93.0335 11.375 92.4248 11.375C91.902 11.375 91.4974 11.4932 91.2109 11.7295C90.9245 11.9658 90.7812 12.2666 90.7812 12.6318C90.7812 12.9756 90.9424 13.2549 91.2646 13.4697C91.5941 13.6774 92.1455 13.86 92.9189 14.0176C93.6924 14.168 94.3441 14.3398 94.874 14.5332C96.514 15.1348 97.334 16.1768 97.334 17.6592C97.334 18.7191 96.8792 19.5785 95.9697 20.2373C95.0602 20.889 93.8857 21.2148 92.4463 21.2148C91.4723 21.2148 90.6058 21.043 89.8467 20.6992C89.0947 20.3483 88.5039 19.8721 88.0742 19.2705C87.6445 18.6618 87.4297 18.0065 87.4297 17.3047H90.373C90.4017 17.8561 90.6058 18.2786 90.9854 18.5723C91.3649 18.8659 91.8734 19.0127 92.5107 19.0127C93.1051 19.0127 93.5527 18.9017 93.8535 18.6797C94.1615 18.4505 94.3154 18.1533 94.3154 17.7881ZM103.06 6.51953V9.37695H105.047V11.6543H103.06V17.4551C103.06 17.8848 103.142 18.1927 103.307 18.3789C103.471 18.5651 103.786 18.6582 104.252 18.6582C104.596 18.6582 104.9 18.6331 105.165 18.583V20.9355C104.556 21.1217 103.93 21.2148 103.285 21.2148C101.108 21.2148 99.998 20.1156 99.9551 17.917V11.6543H98.2578V9.37695H99.9551V6.51953H103.06ZM112.126 21.2148C110.422 21.2148 109.032 20.6921 107.958 19.6465C106.891 18.6009 106.357 17.208 106.357 15.4678V15.167C106.357 13.9997 106.583 12.9577 107.034 12.041C107.485 11.1172 108.123 10.4082 108.946 9.91406C109.777 9.41276 110.722 9.16211 111.782 9.16211C113.372 9.16211 114.622 9.66341 115.531 10.666C116.448 11.6686 116.906 13.0902 116.906 14.9307V16.1982H109.505C109.605 16.9574 109.906 17.5661 110.407 18.0244C110.916 18.4827 111.557 18.7119 112.33 18.7119C113.526 18.7119 114.461 18.2786 115.134 17.4121L116.659 19.1201C116.194 19.779 115.563 20.2946 114.769 20.667C113.974 21.0322 113.093 21.2148 112.126 21.2148ZM111.771 11.6758C111.156 11.6758 110.654 11.8835 110.268 12.2988C109.888 12.7142 109.645 13.3086 109.537 14.082H113.855V13.835C113.841 13.1475 113.655 12.6175 113.297 12.2451C112.939 11.8656 112.43 11.6758 111.771 11.6758ZM125.21 12.2881C124.787 12.2308 124.415 12.2021 124.093 12.2021C122.918 12.2021 122.148 12.5996 121.783 13.3945V21H118.679V9.37695H121.611L121.697 10.7627C122.32 9.69564 123.183 9.16211 124.286 9.16211C124.63 9.16211 124.952 9.20866 125.253 9.30176L125.21 12.2881ZM134.878 21C134.735 20.5059 134.663 19.7969 134.663 18.873C134.205 19.6178 133.578 20.1943 132.783 20.6025C131.988 21.0107 131.09 21.2148 130.087 21.2148C129.013 21.2148 128.146 20.9248 127.487 20.3447C126.836 19.7575 126.51 18.9948 126.51 18.0566C126.51 16.9896 126.99 16.1374 127.949 15.5C128.916 14.8555 130.198 14.526 131.795 14.5117H134.663V12.8145C134.663 11.8405 134.355 11.085 133.739 10.5479C133.131 10.0107 132.257 9.74219 131.118 9.74219C130.058 9.74219 129.174 10.0143 128.465 10.5586C127.756 11.1029 127.401 11.776 127.401 12.5781L126.821 12.5566C126.821 11.6113 127.237 10.8092 128.067 10.1504C128.898 9.49154 129.915 9.16211 131.118 9.16211C132.371 9.16211 133.367 9.47721 134.104 10.1074C134.842 10.7305 135.222 11.6113 135.243 12.75V18.3037C135.243 19.5785 135.343 20.445 135.544 20.9033V21H134.878ZM130.087 20.6455C131.175 20.6455 132.11 20.402 132.891 19.915C133.678 19.4281 134.269 18.7441 134.663 17.8633V15.1025H131.978C130.316 15.1025 129.045 15.432 128.164 16.0908C127.448 16.6279 127.09 17.2975 127.09 18.0996C127.09 18.8086 127.373 19.4102 127.938 19.9043C128.504 20.3984 129.22 20.6455 130.087 20.6455ZM138.455 15.0703C138.455 13.2155 138.845 11.7689 139.626 10.7305C140.407 9.6849 141.477 9.16211 142.838 9.16211C143.712 9.16211 144.481 9.35905 145.147 9.75293C145.821 10.1468 146.365 10.734 146.78 11.5146V4.5H147.36V21H146.78V19.1416C146.386 19.8005 145.846 20.3125 145.158 20.6777C144.471 21.0358 143.69 21.2148 142.816 21.2148C141.47 21.2148 140.407 20.6813 139.626 19.6143C138.845 18.5472 138.455 17.0827 138.455 15.2207V15.0703ZM139.057 15.2959C139.057 16.943 139.382 18.2464 140.034 19.2061C140.686 20.1585 141.61 20.6348 142.806 20.6348C143.765 20.6348 144.585 20.4235 145.266 20.001C145.946 19.5713 146.451 18.9447 146.78 18.1211V12.6748C146.114 10.7197 144.797 9.74219 142.827 9.74219C141.638 9.74219 140.711 10.2113 140.045 11.1494C139.386 12.0876 139.057 13.4697 139.057 15.2959ZM159.359 21H158.779V13.1904C158.772 12.0231 158.514 11.1566 158.006 10.5908C157.505 10.0179 156.702 9.73145 155.6 9.73145C154.325 9.73145 153.283 10.2936 152.474 11.418C151.994 12.0911 151.675 12.8359 151.518 13.6523V21H150.927V9.37695H151.518V12.127C151.911 11.1816 152.474 10.4512 153.204 9.93555C153.935 9.41992 154.744 9.16211 155.632 9.16211C156.606 9.16211 157.401 9.37695 158.017 9.80664C158.64 10.2363 159.048 10.9382 159.241 11.9121C159.585 11.0742 160.144 10.4082 160.917 9.91406C161.69 9.41276 162.557 9.16211 163.517 9.16211C164.77 9.16211 165.701 9.5166 166.31 10.2256C166.925 10.9346 167.237 11.998 167.244 13.416V21H166.664V13.459C166.664 12.1842 166.406 11.2425 165.891 10.6338C165.382 10.0179 164.58 9.71712 163.484 9.73145C162.074 9.75293 160.956 10.3151 160.133 11.418C159.66 12.0553 159.402 12.6712 159.359 13.2656V21ZM171.487 21H170.907V9.37695H171.487V21ZM170.606 5.74609C170.606 5.58138 170.664 5.44173 170.778 5.32715C170.893 5.2054 171.033 5.14453 171.197 5.14453C171.362 5.14453 171.502 5.2054 171.616 5.32715C171.738 5.44173 171.799 5.58138 171.799 5.74609C171.799 5.91081 171.738 6.05046 171.616 6.16504C171.502 6.27962 171.362 6.33691 171.197 6.33691C171.033 6.33691 170.893 6.27962 170.778 6.16504C170.664 6.05046 170.606 5.91081 170.606 5.74609ZM175.881 12.084C176.26 11.1816 176.819 10.4691 177.557 9.94629C178.294 9.4235 179.111 9.16211 180.006 9.16211C181.252 9.16211 182.176 9.5166 182.777 10.2256C183.386 10.9274 183.694 11.9909 183.701 13.416V21H183.121V13.3945C183.114 12.1484 182.86 11.2282 182.358 10.6338C181.857 10.0322 181.062 9.73145 179.974 9.73145C178.971 9.73145 178.101 10.0895 177.363 10.8057C176.633 11.5146 176.139 12.4313 175.881 13.5557V21H175.301V9.37695H175.881V12.084Z" fill="#525C65"/>
</svg>
