<svg width="34" height="31" viewBox="0 0 34 31" fill="none" xmlns="http://www.w3.org/2000/svg">
<path d="M8.89998 1.76447C5.09998 3.76447 2.39998 6.46447 3.19998 7.36447C3.49998 7.66447 5.39998 6.76447 7.49998 5.36447C14.2 0.764467 21.2 1.06447 27.5 5.96447C30.4 8.16447 32 7.76447 30 5.26447C25.7 0.064467 15.3 -1.63553 8.89998 1.76447Z" fill="white"/>
<path d="M0 8.66446C0 9.26446 0.4 9.76446 0.9 9.76446C1.4 9.76446 2.3 11.1645 2.9 12.7645C4.6 17.6645 9.9 18.6645 14.2 14.9645C17.2 12.3645 16.2 11.1645 10.3 9.86446C7.1 9.16446 3.5 8.36446 2.3 8.06446C1 7.76446 0 8.06446 0 8.66446ZM6.4 12.3645C6.8 13.5645 7.9 13.8645 10.1 13.5645C12.7 13.1645 12.9 13.2645 11.7 14.5645C9.9 16.3645 6.4 15.3645 5 12.6645C4.4 11.5645 4.3 10.7645 4.9 10.7645C5.4 10.7645 6.1 11.4645 6.4 12.3645Z" fill="white"/>
<path d="M24.8 9.46446C17.8 11.0645 16.7 12.3645 19.8 14.9645C24.1 18.6645 29.4 17.6645 31.1 12.7645C31.7 11.1645 32.6 9.76446 33.1 9.76446C33.6 9.76446 34 9.26446 34 8.76446C34 7.56446 33.1 7.56446 24.8 9.46446ZM29 12.6645C27.6 15.3645 24.1 16.3645 22.3 14.5645C21.1 13.2645 21.3 13.1645 23.9 13.5645C26.1 13.8645 27.2 13.5645 27.6 12.3645C27.9 11.4645 28.6 10.7645 29.1 10.7645C29.7 10.7645 29.6 11.5645 29 12.6645Z" fill="white"/>
<path d="M2 17.5645C2 19.2645 6 21.9645 7.5 21.3645C8.4 21.0645 10.1 21.4645 11.2 22.2645C12.7 23.2645 13.8 23.3645 15.2 22.6645C16.4 22.0645 17.6 22.0645 18.9 22.6645C20.2 23.3645 21.3 23.2645 22.6 22.2645C23.7 21.4645 25.4 21.0645 26.5 21.3645C27.8 21.6645 29.3 21.0645 30.5 19.8645C32.6 17.4645 31.8 15.8645 29.5 17.7645C26.3 20.3645 7.4 20.5645 4.8 17.9645C3.4 16.5645 2 16.3645 2 17.5645Z" fill="white"/>
<path d="M3 23.5645C3 26.3645 11.6 30.7645 17 30.7645C21.3 30.7645 27.7 28.0645 30 25.2645C32.2 22.5645 30.4 22.5645 26.5 25.1645C21.3 28.7645 16.8 29.3645 11.5 27.3645C9.1 26.3645 6.6 24.9645 6 24.1645C4.6 22.6645 3 22.2645 3 23.5645Z" fill="white"/>
</svg>
